<svg xmlns="http://www.w3.org/2000/svg" version="1.1" xmlns:xlink="http://www.w3.org/1999/xlink" xmlns:svgjs="http://svgjs.dev/svgjs" width="1000" height="1000"><g clip-path="url(#SvgjsClipPath1065)"><rect width="1000" height="1000" fill="#ffffff"></rect><g transform="matrix(5.548705302096178,0,0,5.548705302096178,56.10357583230575,50)"><svg xmlns="http://www.w3.org/2000/svg" version="1.1" xmlns:xlink="http://www.w3.org/1999/xlink" xmlns:svgjs="http://svgjs.dev/svgjs" width="160" height="162.2"><svg id="Layer_1" xmlns="http://www.w3.org/2000/svg" xmlns:xlink="http://www.w3.org/1999/xlink" version="1.1" viewBox="0 0 160 162.2">
  <!-- Generator: Adobe Illustrator 29.1.0, SVG Export Plug-In . SVG Version: 2.1.0 Build 142)  -->
  <defs>
    <style>
      .st0 {
        fill: url(#New_Gradient_Swatch);
        fill-rule: evenodd;
      }
    </style>
    <linearGradient id="New_Gradient_Swatch" data-name="New Gradient Swatch" x1="-64.5" y1="200.7" x2="114.5" y2="54.7" gradientUnits="userSpaceOnUse">
      <stop offset="0" stop-color="#439ddf"></stop>
      <stop offset=".5" stop-color="#4f87ed"></stop>
      <stop offset=".8" stop-color="#9476c5"></stop>
      <stop offset=".9" stop-color="#bc688e"></stop>
      <stop offset="1" stop-color="#d6645d"></stop>
    </linearGradient>
  <clipPath id="SvgjsClipPath1065"><rect width="1000" height="1000" x="0" y="0" rx="100" ry="100"></rect></clipPath></defs>
  <path class="st0" d="M52.3,2c-.8,4.1-1.9,5.6-8.3,11.3-2.7,2.4-3.7,3.9-4.8,7.2-.7,2.1-.8,3-.8,6.1,0,9.4,4.5,16.5,10.9,17.2.9,0,2.1,0,2.5,0,.8-.2.7-.3-1-.8-2.7-.8-4.1-1.6-5.8-3.4-2.8-3-4-6.8-4-13s.8-8.5,5.9-13.6c2.6-2.6,3.8-4,4.4-5.3,1-2.2,1.5-4.3,1.4-6.2V0c0,0-.5,2-.5,2M65.4,4.4c-7.9,5.2-10.2,18-4.5,24.8l.8.9-.7-2.1c-2-5.7-1.4-13.4,1.5-19,.5-1,1.9-2.8,3-3.9,1.1-1.1,2-2.1,1.9-2.1s-.9.6-2,1.2M69.8,4.8c-1.5.7-3.2,1.7-3.7,2.2-1.2,1.1-1.6,2.4-.9,3.1.4.4.6.4,1.3,0,.9-.5,6.8-6.6,6.3-6.6-.1,0-1.5.6-3,1.3M80.3,4.4c-1.3.3-3.6,1.2-5.2,2-6,2.9-10,8.4-11.2,15.1-.6,3.7-.4,7.9.6,11.9.9,3.5,1.9,5.6,4.6,9.6,1.1,1.6,1.9,2.9,1.9,2.9,0,0-.9-.3-2-.6-4.6-1.4-7.8-1.1-15.6,1.4-6.4,2.1-6.9,2.2-10.3,2.6-6.8.8-11.4-1.4-13.8-6.4-.7-1.5-.8-2-.8-4.9,0-2.8.1-3.5.9-5.2.5-1.1.9-2.2,1-2.4.1-.3,0-.3-.5.1-.4.3-1.2,1.6-1.8,2.9-1.1,2.3-1.1,2.3-1.1,6s0,3.8.9,5.6c1.2,2.5,4,5.2,6.5,6.2,2.8,1,4.4,1.3,7.9,1.2,1.8,0,3.2,0,3.2,0-.1.3-2.5,3.9-4.3,6.8-3,4.6-6.4,6.8-11,7.2-3.8.3-7.5-1.2-10.8-4.3l-2-1.9.8,1.4c2.6,4.2,6.7,6.4,11.7,6.4s10.4-2.6,15.2-9.5c1.2-1.8,2.8-3.6,3.4-4.2,1.7-1.4,5.9-3.5,8.2-4.2,8.4-2.5,15.7.8,17.1,7.8.3,1.6,0,4.5-.7,5.7-.3.5-.3.5-.7-.3-1.6-3.7-7-6.3-11.8-5.8-3.8.4-7.3,2.3-12,6.7-2.6,2.4-4,3.3-6.2,4.5l-2.9,1.4h-4.6c-3.6,0-4.9-.1-6-.6-2.2-.9-1.8-.3.6.9,3.5,1.7,7.8,1.9,12.2.8,2.6-.7,3.7-1.4,9.1-5.7,3.5-2.8,5.3-3.8,8.1-4.6,3.6-.9,6.7-.1,8.9,2.3,1.4,1.6,1.7,2.3,1.7,4.6s-.5,3.6-2.8,7.4c-1,1.6-2.2,3.8-2.7,4.9-1.2,2.5-1.9,6.4-1.8,9.1,0,1.2,0,2.1-.1,2.1-.6,0-3.5-1.7-5.4-3.1-2.3-1.7-5.3-3.2-8.4-4.2-6.4-1.9-11.8-1.7-20.3.7-6.8,1.9-9.8,2.1-13.2.8-3.1-1.2-6.7-4.4-8.3-7.5-.4-.8-.4-1,0-1.4.9-.9.5-2.4-1.4-6.1l-1.9-3.6v3.9c0,4.3.5,5.9,1.7,6.1.5,0,.7.4.9,1.2.3,1.4,2.3,4.4,4.1,6.2,4,3.9,10.1,5.2,17.1,3.7,9.6-2.1,10.2-2.2,12.5-2,3,.2,4.7,1,8.5,3.7l3,2.2-2.5.4c-1.8.3-3.2.7-5.4,1.8-2.5,1.2-3.3,1.8-5.7,4.2-3.2,3.2-4.5,5.5-6.6,11.3-2.3,6.6-4.3,9.4-7.8,11.2-1.7.8-2.2.9-4.6.9-6.2,0-10.8-3.2-13.1-9.3-.9-2.3-1-1.9-.1.8,2,6.5,7.8,10.6,14.6,10.3,6.6-.3,10.4-4.1,13.8-13.7,1.7-4.7,5.2-9.4,8.7-11.6,3.4-2.1,8.7-2.8,12.9-1.7,4.3,1.1,9.4,4.6,12.2,8.3,1.6,2.2,1.9,2.8,1,2.4-1.4-.6-4.2-.8-6.9-.7-10.3.5-17.6,7.2-19.1,17.2-.9,6.2.2,11,3.2,14.1,2.6,2.7,5.3,3.4,9.1,2.2,1.9-.6,2.5-.9,4.1-2.6,1.6-1.6,2.1-2.4,3.2-5.1,1.8-4.4,2.4-5.5,3.5-6.7,1.7-1.8,5-3.1,7.1-2.7l1.1.2-.2,3.9c-.2,4.5-.9,7.5-2.6,11.2-3.1,6.6-7.6,11.1-14.4,14.4-3.6,1.8-6.8,2.7-10.8,3-2.7.2-2.7.2-1.6.6,2.1.7,5.7,1.1,8.6,1,2.5-.1,4.9-.7,7.7-1.9.6-.2.6-.2,0,.4-.8.9-3.9,2.5-5.9,3q-1.8.4-.6.5c.7,0,1.5.1,1.8.2.3,0,1.9,0,3.6-.2,4.4-.4,7.9-1.7,10.5-3.8.7-.6,1.3-1,1.4-1,.4,0,.5,2,.2,3.1-.4,1.7-1.9,3.2-4.1,4.2l-1.9.9,1.4-.2c4.8-.6,8.1-2,10.7-4.7l1.7-1.7.9,1.2c1.3,1.7,4.3,3.7,6.7,4.4,2.4.8,7.1,1.1,8,.7.5-.3.5-.3-.2-.4-3.2,0-7.4-3.4-8.3-6.5-.3-.9-.5-2.1-.4-2.6v-.9c0,0,1.6,1.1,1.6,1.1,2.1,1.5,5.9,3.3,8.7,4.1,4.3,1.2,9.9,1.4,13.9.5,1.2-.3,5.7-1.7,5.7-1.8s-1.5-.1-3.3-.1-4.2-.2-5.2-.4c-6.5-1.2-12-5.3-14.8-11.1-1.8-3.6-2.6-7-2.8-11.8l-.2-3.8.8-.7c.6-.5,1.2-.8,2.4-.9,2.5-.2,3.9.7,6.5,4.1,1.2,1.6,2.8,3.3,3.6,3.9,1.7,1.2,3,1.6,7.8,2.1,1.9.2,3.8.5,4.1.6.3.1.5.1.5,0,0-.4-2.7-1.5-5.7-2.2-5.5-1.3-6.3-1.8-9.3-6.3-1.2-1.8-2.2-2.9-3.2-3.6-1.6-1.1-4.3-1.7-6-1.5l-1.2.2.2-1.1c0-.6.4-2,.8-3.1,2.1-7.1,10.8-8.5,18.8-3,.7.5,2.5,2,3.9,3.3,6.3,5.8,10.3,7.6,16.8,7.6s3.9-.2,5-.5c4.5-1.1,8.7-4.2,10.4-7.8,1.2-2.6,1.1-3.2-.2-1-1.4,2.3-4,4.8-6.6,6.1-4.7,2.4-10.9,2.2-16.7-.6-1.8-.9-3-1.8-6.9-5.6-4-3.9-5.1-4.7-7.4-5.9-3.8-2-6.7-2.8-9.9-2.8-1.4,0-2.6-.1-2.5-.2,0-.1.9-.6,1.9-1.1,5.6-2.8,13-3.3,19-1.3,2.4.8,4,1.7,9.8,5.3,8.3,5.3,18,4.4,24.8-2.1,3.8-3.7,6.6-9.6,6.6-13.9v-1.5s-.6,1.8-.6,1.8c-.8,2.5-2.9,6.5-4.6,8.8-5.2,7.1-12.1,9.7-19.1,7.3-2.4-.8-3.3-1.3-9.9-5.9-4.8-3.3-9.8-5-15.5-5.4l-3.1-.2,1.5-.8c2.2-1.3,4.5-3.5,6.9-6.7,2.6-3.4,3.6-4.4,5.9-5.5,2.3-1.1,6.6-1.1,9.2,0,2.1.8,4.1,2.5,4.9,4.1.9,1.8.9,4.8,0,6.6-.4.8-.5,1.1-.2.7,2.1-2.6,2.4-5.9.9-8.9-1.1-2.2-3.7-4.3-6.4-5.1-2.4-.8-6.5-.7-8.8,0-3.1,1.1-4.7,2.3-7.9,6.2-2.8,3.4-4.5,4.8-8.5,6.7-8.5,4-8.3,3.9-10.5,6.2-3.1,3.1-4.7,6.1-6.2,11.8l-.3,1.1-.5-1.5c-1-2.9-1.4-5.8-1.4-9.2s.5-6.6,1.9-9.1c1.4-2.6,2.9-4.2,7.3-7.6,2.1-1.7,4.5-3.7,5.3-4.6,2.4-2.6,4.7-6.5,6.1-10,1.2-3.2,1.3-3.2,3.2-4.5,3.9-2.5,9.5-3.7,15.3-3.2,9.8.9,20,5.2,25.1,10.6,3.2,3.3,4.5,6.4,4.6,10.2v2.2s.6-1.2.6-1.2c.7-1.5.8-4.6.1-6.7-1.5-5-6.7-10.2-13.5-13.3-10.5-4.8-21.6-6-30.1-3.2l-3,1,1.1-2.1c4.5-8.3,13-12.6,21.5-10.8,3.6.8,6.1,2.2,7.6,4.4.8,1.2.9.6.1-1.1-.9-1.8-2.6-3.4-4.9-4.5-2.6-1.2-4.5-1.5-8.3-1.3-3.8.2-6.9,1-10.2,2.8-1.1.6-2,1-2.1,1s.6-1.2,1.5-2.5c3.1-4.7,7-7.7,11.6-8.9,2.9-.8,7.6-.7,9.8.2,3.3,1.2,5.3,4.1,6.1,8.3.6,3.5-.3,7.1-2.8,10.8l-1,1.5,1.5-1.6c6.2-6.5,4.9-17.4-2.6-20.9-2.5-1.2-4.9-1.6-8.7-1.4-7,.3-12.5,3.9-17.3,11.2-2.6,4-5.6,8.2-5.9,8.2s-.4-.8-.7-1.8c-.9-2.9-2.5-5.3-5.7-8.8-4.6-4.9-6.1-8.7-5.6-13.4.5-5.2,2.8-9.5,7.2-13.8,4.9-4.8,11.2-7.1,17.8-6.7,5.2.3,9.7,1.7,13.9,4.3l2.3,1.4-1.4-1.2c-2.9-2.6-7.7-4.9-11.9-5.7-3.5-.7-9.1-.5-12.1.5-6.1,1.9-11.1,5.7-14.6,11.1-2.8,4.3-3.9,7.6-3.9,11.8,0,4.7,1.5,8.4,5,12.8,3.7,4.6,4.7,7.5,4.7,13.3,0,6.2-1.6,10.6-5.3,14.2-2,2-4.9,3.7-7,4.1l-1,.2,2.2-2.8c2.5-3.3,5.2-8.6,6.1-11.9,2-7.3.6-13.8-4.1-18.5-1.8-1.8-2.7-2.4-5.7-3.9-4.1-2-5.8-3.5-7.1-6.2-.7-1.5-.9-2.3-1-5.1,0-1.8-.2-3.2-.3-3.1,0,0-.3,1.1-.5,2.2-1.1,6,1.6,10.9,7.7,14.1,6.2,3.2,8.9,7.3,8.9,13.4,0,6.2-2.1,11.1-7.7,18.1-5,6.3-6.4,8.7-7.2,12.7-.2,1.2-.5,2.2-.6,2.3-.2.2-1.6-3.1-1.9-4.8-.2-.9-.3-2.8-.3-4.3,0-3.4.8-6.4,3.5-12.3,2.7-6.1,3.1-7.5,3.1-12.3s0-4.2-.9-6.6c-1.3-3.6-2.6-5.8-6.4-11-5.2-7-6.8-11.2-6.8-17.6,0-8,3.2-14.1,9-17.4,4.4-2.5,10.5-3.5,16.7-2.9,2,.2,3.8.3,3.8.2s-1-.5-2.4-.8c-3.6-1-9.8-1.1-13.1-.3M99,6.4c-4.8,1.6-6.4,2.6-6.4,4.1s.2.9.8,1.1c.4.1,1,0,1.3,0,.7-.3,6.3-5.6,5.9-5.6-.2,0-.9.2-1.6.5M79.8,7.8c-.4.2-.8.6-.9.9,0,.3-.3.5-.6.4-.6-.2-3.5,1.2-4.8,2.3-1.1.9-2.9,3.4-2.9,3.8s.8-.5,1.7-1.3c.9-.8,2.8-2.1,4.1-2.9,2.2-1.3,2.6-1.4,3.4-1.1.7.2,1.3.2,2.7,0,1-.2,2.6-.6,3.5-.7,1-.2,1.8-.4,1.8-.5s-.9-.4-2.1-.7c-2.3-.6-4.7-.6-5.8-.2M56.8,8.9c-2.7,1.6-4.9,4.4-4.4,5.9.4,1.1,1.1.6,2.2-1.6.6-1.2,1.7-2.9,2.5-3.7.8-.8,1.3-1.4,1.3-1.4s-.8.4-1.5.8M100.2,10.2c-3.8.6-7.6,3.5-9.2,7.1-1,2.1-1.8,5.5-1.8,7.2,0,.8.2.5.8-1.5,1.1-3.8,2.2-5.8,4.2-7.9,2.1-2.1,4.7-3.5,8.3-4.4,1.5-.4,2.1-.6,1.5-.6-.5,0-1.2,0-1.5-.1-.3,0-1.3,0-2.2.2M64.2,11.2c-1.5,1.6-2.7,5.1-3,8.5-.2,1.8-.1,1.9.2.8.8-3,1.7-5.4,2.7-7.4,1.2-2.2,1.2-3.1,0-1.8M50.3,12.7c-4,3.2-5.7,5.4-5.7,7.4s.5,1.8,1.6,1.8,2.2-1.1,3.4-4.8c.6-1.8,1.5-3.9,1.9-4.5,1-1.4.7-1.4-1.2.1M89.7,13c-2.9,3-4.5,8-3.9,12,.3,2,1.2,4.8,1.9,5.6.3.4.3.3.1-.1-.4-1.1-.5-8.5-.2-10.2.5-2.3,1.8-5,3.3-6.8.7-.8,1.3-1.6,1.3-1.8,0-.7-1.2-.1-2.5,1.3M37.3,14.4c-4.9,4.9-6.2,11.5-3.4,17.5.9,1.9,2.9,4.7,3.2,4.4s-.2-.7-.6-1.3c-1.8-2.7-2.8-8-2.3-11.9.5-3.6,1.4-5.6,3.9-8.8.9-1.1,1.6-2.1,1.5-2.1s-1.1.9-2.3,2.1M76.3,13.8c-.7.3-1.2.8-1.3,1.1,0,.4-.7,1-1.3,1.5-3.4,2.4-5.3,8.5-4.2,13.7.4,2.1,2.2,6.4,2.4,6.1,0,0-.2-1.2-.5-2.4-1.7-6.4-.7-11.8,2.6-15.9.8-1,1.3-1.3,2.1-1.4.5,0,1.5-.4,2.2-.7.7-.4,1.8-.7,2.4-.9,2-.4,2.1-.6.4-1.1-1.9-.6-3.4-.6-4.9,0M102.8,14c-2.3.6-5.1,2.1-6.8,3.7-1.4,1.3-4.1,4.7-4.1,5.4s.9-.6,1.9-1.7c3.2-3.2,7.7-5.9,12.1-7.2l2-.6h-1.8c-1,0-2.5.2-3.3.4M82.8,16.7c-3,5.2-2.7,11.5.7,15.3,1.1,1.3,3.1,2.4,4,2.2.6,0,.5-.2-.5-.8-1.5-.9-3.1-3.2-4-5.6-1-2.8-.9-7.2.2-10.5.4-1.3.7-2.4.7-2.4s-.5.7-1,1.6M54.7,18.5c-.5,1.8-.6,2.7-.5,5.1.1,2.6.3,3.2,1.2,5.2.9,1.9,1.6,2.8,2.2,2.8s-.4-1.5-1-3.5c-1.3-3.9-1.7-6.9-1.2-9.8.2-1,.2-1.9.2-1.9,0,0-.4.9-.8,2.1M36.8,19.3c-1.1,3.9-1.4,8.3-.7,11.4.8,3.6,1,2.9,1-3.9,0-3.6,0-7.2.2-7.9.3-1.8,0-1.7-.5.3M77.2,18.9c-2.9,2.4-4.6,6.6-4.5,11.4,0,2.6,0,2.8,1.2-2,.8-3,3-7.4,4.6-9.2,1.6-1.8.9-1.9-1.3-.1M50.7,18.8c-2,2.6-3,5.4-3,7.9s0,1.6.4.9c.2-.4.9-1.5,1.5-2.4.8-1.2,1.2-2,1.3-3.4.1-1,.3-2.2.5-2.8.4-1.4.2-1.5-.7-.2M111.3,18.6c-3.4.7-7.8,3-10.7,5.7-2.3,2.1-4.2,4.5-5.2,6.7-.3.6-.3.8-.1.5,1.3-2,4.2-5.2,5.7-6.4,3.6-2.9,8.3-4.7,13.6-5.2l2-.2,1.2,1.2c1.1,1.1,1.4,1.3,3.5,1.6,1.3.2,3.4.6,4.7,1,1.3.3,2.5.5,2.5.5,0,0-1.5-1.1-3.4-2.4-3.8-2.5-5.6-3.2-6.9-2.7-.6.2-1.1.2-1.9-.1-1.2-.5-2.1-.5-4.9,0M29.9,20.4c-1.6,1-2.8,2.1-4,3.7-1.8,2.4-1.4,5.1.8,5.1s1.8-.6,2.1-3.1c.3-2.7.9-4.3,2-5.5,1-1,.6-1.1-.9-.1M44.3,22.7c-.4.7-1.3,3.8-1.2,4,0,0,1.2-2.3,1.9-4.1.2-.6-.5-.5-.8.1M112.7,22.3c-.4,0-.9.2-1,.4-.1.1,2.3,1.1,5.3,2.1,7.2,2.5,7,2.4,6,1.6-3.2-2.8-7.8-4.5-10.4-4.1M51.5,25.4c-.9,2.8-1.1,4.7-.6,5.9.8,2,2.9.9,2.9-1.5s-.4-2.2-.9-3.6l-.9-2.5-.5,1.7M106.3,24.6c-4.8.7-9.4,5.5-10.6,11.1-.2.7,0,.7.4-.4.9-1.9,2.8-4.6,4.5-6.3,2.6-2.5,6.8-4.1,9.9-3.7,1.1.1,1.3.1.8-.2-.9-.5-3.3-.8-5-.5M121.7,28.7c-6.7,1.7-11.8,6.7-13.3,13.2-.4,1.7-.3,4.8.3,6.1.3.7.3.6.3-.7,0-2.5.6-4.6,1.9-7.2,2.1-4.3,5.9-7.5,10.7-9.1,2.2-.7,7-.8,9.8,0,4.4,1.2,10.4,4.9,13.2,8.2.7.8,1.3,1.4,1.4,1.4s-.3-1-.9-2.1c-2.2-4.1-6.9-7.7-12.3-9.4-2.8-.9-8.3-1.1-11-.4M78.5,29.5c0,1.3.8,4,1.2,4s.4-.2-.5-2.8c-.6-2-.8-2.1-.8-1.2M104.1,29c-1.8.5-3.3,1.5-4.3,2.8-1,1.3-1.1,1.6-.1,1,1.4-.9,3.9-1.4,7.1-1.4s5.7-.6,7.1-1.8c.6-.5.6-.5-1.1-.5s-3-.1-4.5-.2c-1.9-.1-3.2-.1-4.1.2M45.4,30.1c-2.4,2-.3,7.6,3.7,10.2,1.8,1.2,2.1,1.2,1.4.2-.8-1.2-1.4-3.5-1.7-6.7-.2-2.4-.4-3.2-1-3.7-.8-.9-1.5-.9-2.5,0M17.8,31.4c-.9,2.5-1.2,3.8-1.4,6.5-.5,6.5,2.5,12.1,7.4,13.6,2,.6,3.6.7,5,.3.6-.2.5-.3-.9-.4-5.5-.8-9-4.2-10.1-9.9-.5-2.3-.2-7.5.4-9.8.6-2.2.4-2.3-.3-.2M23,30.6c-.8,1-.8,2.7-.2,4.3.7,1.6,1.6,1.3,2.7-.8.5-.9.8-2,.8-2.5,0-1.8-2.2-2.5-3.3-1M56.1,32.8c-.9,1-.5,2.7,1.1,4,1.1,1,6.1,3.3,7.2,3.3s-.1-.5-.7-1c-.5-.5-1.6-2-2.5-3.3-2.3-3.5-3.8-4.4-5.1-3M51.8,32.7c-.5.5-.2,3.1.7,4.8,1.7,3.5,5.3,5.5,8.6,4.8l1.1-.2-1.5-.2c-3.8-.5-6.4-3.1-7.6-7.3-.5-1.8-.9-2.3-1.3-1.8M123.2,33.5c-3.8.9-7.7,3.5-10.3,7-.9,1.2-1.7,2.3-1.7,2.4s1.2-1,2.6-2.3c2.8-2.7,5.7-4.4,8.6-5.2,5-1.3,11.8.2,17.3,3.8l1.9,1.3-1.7-1.6c-4.7-4.4-11.4-6.6-16.7-5.4M79.3,34.7c-1.1,1.5-.3,4,1.7,5.9,1.2,1.1,6.3,3.7,6.6,3.4,0,0-.1-.5-.5-.9s-1.4-2.1-2.3-3.9c-2.6-4.8-4.3-6.2-5.5-4.5M102.8,34.8c-1.5.6-3.4,2.4-4.2,4.1-.5,1.1-.7,1.9-.7,3.8,0,2.9.9,5.1,2.8,7.2,1.3,1.4,4,3.7,4.4,3.7s-.5-.9-1.4-2.1c-.9-1.1-2.1-3-2.7-4-.8-1.7-1-2.3-1-4.3,0-3,.8-4.8,2.9-6.2,1.3-.9,1.6-1,3.6-1s2.2-.1,2.2-.2c0-.4-2-1.1-3.4-1.3-.7,0-1.8,0-2.5.3M13.6,36.8c-1.4,6,0,11.8,3.6,15.4,2.1,2.1,4,3,6.7,3.1h2.2c0,.1-2.2-.6-2.2-.6-2.8-.9-3.9-1.6-5.8-3.6-2.9-3.1-4.3-7.7-3.9-13.3.1-1.7.1-3.1,0-3.1s-.4,1-.6,2.1M20.1,37.3c-.4,5.5,1.6,9.2,5.6,10.6.7.3,1.4.4,1.5.3s-.4-.8-1.1-1.5c-1.7-1.8-5.2-9.5-5.2-11.3s-.1-.5-.3-.6-.4,1-.5,2.5M32.4,35.1c0,.8,2,4.2,3,5.2,1.4,1.3,3.1,1.5,3.7.5.4-.7-.2-1.2-2.2-1.8-1.2-.4-3-1.9-4-3.4-.3-.4-.5-.7-.5-.5M124.3,37c-.9.6-.8,1.7.3,2.2.6.3,1.9.3,4.9.1l4.1-.2-1.2-.5c-2.1-1-5.6-2-6.5-2s-1.2.2-1.6.5M30.1,38.2c.1.5.6,1.7,1.1,2.8,1.1,2.3,2.5,3.5,4,3.3,1.5-.2,1.3-1-.3-2-2.2-1.4-3.4-2.5-4.1-3.7-.7-1.4-1-1.5-.7-.3M102.8,37.7c-1.1.6-1.7,1.6-1.7,2.9,0,2.8,3,3.9,5.1,1.9,1.3-1.3,1.4-2.8.3-4-.8-.9-2.8-1.3-3.7-.7M119.7,38.6c-2,.8-4,2.3-5.7,4.2-1.9,2.3-2.3,3-.8,1.7,2-1.8,5.6-4,7.9-4.8,1.2-.5,2.3-1,2.3-1.2,0-.6-2-.5-3.7.2M9.9,40.5c-1.4,7.7,1.6,14.7,7.8,17.7,1.7.9,2.4,1,4.8,1.1,3.7.2,5.6-.5,7.6-2.7,1.7-1.8,1.9-2.6.3-1.2-5.4,4.7-14.1,2.1-17.9-5.5-1.4-2.8-1.7-4.2-2-8.1l-.2-3.4-.4,2M38.3,43.6c-1.2.5-1.5,1.5-.9,2.5.6,1,1.6,1.3,3.5,1.3s6.2-.7,6.2-.9-4.9-2.7-6.3-3c-1.5-.4-1.3-.4-2.5.1M141.7,44.4c0,.4,3.9,4,5.3,4.9,1.8,1.1,3.5,1.2,4.2.4,1.1-1.2.3-2.8-1.9-3.5-2.2-.7-7.7-2-7.7-1.7M103.4,44.9c-.5,1.4.3,3.7,2.3,5.8.7.8,1.3,1.3,1.4,1.3,0,0,0-.6-.3-1.2-.2-.6-.6-2-.8-3.2-.2-1.2-.5-2.4-.7-2.7-.4-.7-1.7-.7-1.9,0M128.1,46.2c-.9.2-.9.2.4.4,2.2.4,4,1.5,6.5,4.1,2.9,3,3.7,3.7,2.8,2.4-.4-.5-1.1-1.8-1.6-2.8-1.9-3.6-4.4-4.9-8.1-4.1M6.2,49.2c.4,3.2.9,4.9,1.6,5.7.9,1,1.8,1,2.4.1.6-.9.2-1.9-1.5-3.9-.8-.9-1.6-2.1-2-2.8-.3-.7-.6-1.2-.7-1.2s0,.9.2,2.1M123.2,48.2c-1.2.4-2.2.8-2.2.8s0,0,0,.2.6.3,1.3.3c.7,0,2.2.3,3.4.6,2.3.6,3.5.4,3.8-.5.3-1-.7-1.7-2.4-1.9-1.2-.1-2,0-3.7.6M152.1,49.3c0,.2.6.6,1.4,1,.8.3,2,.9,2.6,1.2,1.6.9,1.4.5-.5-.9-1.7-1.3-3.6-1.9-3.6-1.3M80.8,50.5c3.3,4.9,4.3,9.9,3,15.1-.6,2.2-2,5.4-2.8,6.3-.3.3-.3.5-.2.5.5,0,3.3-3.8,4.2-5.7.5-1,1-2.8,1.2-3.9.8-4.5-1.3-9.8-5-12.7l-1.3-1,.9,1.4M84.4,51.4c2.8,4.3,3.5,6.5,3.5,10.4s-1.2,7.5-4.3,11.5c-.8,1.1-1.5,2.1-1.5,2.2,0,.4,1.7-1.1,3.2-2.9,5.4-6.6,5.4-14.8.1-20.2-.8-.9-1.3-1.3-1.1-.8M144.6,51.5c1.2,1.3,3,2.2,6.5,3.1,2,.5,4.1,1.2,4.8,1.5l1.2.6-1.2-1.1c-1.7-1.5-3.9-2.5-6.7-3-1.3-.2-3-.7-3.8-1.1l-1.4-.6.6.7M59,53.1c-2.6.7-5.5,2.3-7.6,4.2-2.1,1.9-2.4,2.7-.7,1.3,1.6-1.2,5.3-2.8,8-3.4,3-.7,7.3-.5,9.6.4.9.3,1.6.5,1.6.4,0-.4-1.9-1.9-3.3-2.5-1.7-.8-5.4-1-7.6-.4M4.2,55.7c-.8,7.8,4.5,14.8,11.5,15.2,2.4.2,4.6-.4,5.9-1.5.5-.4.6-.6.2-.4-1.4.4-4,.5-5.8.2-2.8-.5-5.1-1.6-6.9-3.3-2.6-2.5-3.7-4.8-4.4-9.4l-.4-2.8-.2,2M145.9,55.1c1,1.7,3.3,3.8,5.9,5.3,1.4.8,3,1.8,3.6,2.2,1.3.9,1.3.4.1-1.5-1.3-2.1-2.4-3-5.2-4.1-1.4-.6-3.1-1.5-3.8-2l-1.2-1,.6,1M37.5,55.6c-.5.2-1.2,1-1.6,1.8-.7,1.2-2.4,5.7-2.2,5.7s1.5-1.3,3.2-3c2.7-2.6,3.1-3.1,3-3.9,0-.7-.3-.9-.9-1-.4,0-1.1.1-1.6.4M10.1,56.2c0,.7,2.1,2.6,3.4,3.2.6.3,1.5.6,2.1.7,1,.2,1,.1-.6-.7-.9-.5-2.3-1.5-3.1-2.3-1.6-1.5-1.8-1.6-1.8-.9M143.3,56.9c.4.8,2.7,3.4,5.2,6,2.4,2.5,4.9,5.1,5.4,5.8,1.1,1.4,2.5,4.2,2.5,4.9s.1.5.2.6c.4.3-.2-3.3-.9-4.9-1.1-2.5-2.8-4.5-6.6-7.5-2-1.6-4.3-3.6-5.1-4.5l-1.5-1.6.7,1.4M121.2,56.6c-3,1-6.3,3.3-7.9,5.6l-.7,1,1.4-1c2.2-1.5,5.9-3.3,8-3.8,3.7-1,6.8-.5,9.8,1.5l1.6,1.1-.8-1c-.4-.6-1.4-1.5-2.2-2-2.8-1.9-6.1-2.4-9.4-1.3M48,59c-1.4,2.8-4.1,5.6-6.7,6.9l-2.1,1.1,1.5-.2c4.1-.5,7.3-3.4,8.2-7.4.5-2.5.2-2.7-.9-.5M9,60.7c1.6,3.6,3.6,5.4,7,6.1,1,.2,3.9-.1,3.9-.4s-.7-.4-1.5-.6c-1.8-.5-6.4-3.3-8.6-5.4l-1.5-1.4.8,1.8M29.8,59.9c-.3.1-1.4.6-2.3,1.1-1.1.6-2.3.9-3.5,1l-1.8.2,1.1.6c2.4,1.2,5.9,1,7.8-.6,1.1-.9,1.2-1.4.2-2.1-.7-.5-.7-.5-1.6-.2M123.2,60.3c-.4.2-.7.5-.8.9-.1.4-.7.7-2.1,1-2.3.5-3.2,1-1.1.7.8-.1,1.7-.3,2.1-.5.6-.2.8-.1,1.2.3.3.5.8.6,1.9.6,1.7,0,4.6-.8,5.2-1.4,1-1-4.5-2.5-6.3-1.7M143.2,62.3c.4.5,2.4,2.8,4.6,5.1,4.2,4.5,5.8,7.1,6.4,10,.2,1.2.3,1.2.3.5.2-3.3-.9-6.2-3.3-8.7-1.8-1.9-9-8-8.1-6.8M57.6,63.9c-.4.2,0,.3,1.5.6,2.7.5,4.8,1.5,6.5,2.9,1.5,1.3,1.7.8.3-1-1.3-1.8-3.5-2.8-5.9-2.8-1,0-2.1.1-2.4.2M156.2,64.2c-.6.6-.1,2.8,1,5,.6,1.3,1.4,3.1,1.8,4.1l.6,1.8.2-1.2c.1-.7.2-2.4.2-4,0-4.1-.8-5.9-2.6-5.9s-1.1,0-1.2.2M53.8,66.5c-1.3,1.3-2.1,2.8-1.6,3.1.1,0,.4-.3.7-.8s.8-1.6,1.4-2.3c.5-.7,1-1.3.9-1.3s-.7.6-1.3,1.3M139.6,65.3c0,0,1.2.8,2.6,1.7,3.3,2,5.8,4.4,7.3,6.8.6,1.1,1.1,1.6,1,1.2-.8-2.8-3-5.6-5.7-7.2-1.6-.9-5.1-2.6-5.1-2.4M58.1,66.5c.1.1.7.5,1.2.8,1.5.8,2.4,2.3,2.4,4s-.2,1.8-2.2,5.5c-1.4,2.5-1.9,4.8-1.4,6.9.5,2.2.7,2.2.8.1,0-2.1.8-3.8,3-7.2,1.3-1.9,1.6-2.7,1.7-4,0-.9,0-2,0-2.4-.2-1-1.6-2.5-2.6-3.1-.9-.5-3-1-2.7-.7M55.6,69.3c-.9,1.1-.8,2.1.3,3.2,1,1,1.5,1.1,2.8.4,1-.5,1.2-1,1.2-2.3,0-2.1-3-3-4.2-1.3M119.5,69.9c-.8.6-.9,1.3,0,2.2.9,1,1.9,1.1,3.5.4.8-.4,1.4-.8,1.4-.9,0-.4-1.2-1.3-2.3-1.7-1.5-.5-1.7-.5-2.5,0M115.1,70.2c-1.9.5-3.3,1.4-4.9,3.2-1.2,1.3-2.7,3.6-2.7,4.2s.4-.3.9-1c1-1.3,4-3.7,5.8-4.6.6-.3,1.8-.7,2.7-.9,1.7-.4,2-.8.9-1-.9-.2-1-.2-2.7.2M8,70.4c0,.7,1.4,3.5,1.9,3.9.8.7.9.2.2-.8-.5-.7-1-1.5-1.4-2.2-.4-.7-.8-1.1-.8-.9M47.1,71.2c-1.3,1.6-2,3.5-1.7,4.8.2,1.3,1.1,2.3,2.1,2.3s1.1-.7.8-2.5c-.3-1.8-.3-4,0-5,.4-1.1,0-1-1.2.4M50.6,71.1c-.6.9-.6,3,0,4.4.6,1.4,3,4.9,3.6,5.1.3.1.3,0,0-1.4-.2-.9-.4-2.7-.4-4.1,0-3.3-.5-4.7-1.8-4.7s-1.1.2-1.4.7M128.6,72.3c.4.4,1.5,2.1,2.4,3.6s2,3,2.5,3.4c1.5,1.1,2.8,0,2.3-2.1-.4-1.7-4.2-4.6-7.2-5.5l-.8-.2.8.8M23.5,72.5c-2.8.4-5,1.6-6.1,3.3-.7,1-.8,2.7-.1,2.9.5.2,1-.3,2.5-2.4,1.2-1.7,3.1-3.1,4.6-3.4.6-.1,1.1-.3,1.2-.5,0-.2,0-.2,0-.2s-1,.1-1.9.3M137.1,75.2c2,3.7,2.6,6.3,2.6,10.2,0,2.3-.2,3.8-.5,4.7-.7,1.7-.4,1.7.5-.2,1.6-3.2,1.8-7.2.4-10.7-.8-2-2.3-4.5-3.4-5.6-.8-.7-.8-.6.4,1.5M27.4,74.2c-2.6.8-5.1,2.1-5.9,3-.6.7-.8,1.6-.4,2.5.2.7,1.9.6,2.9,0,1.1-.7,6.4-6.2,5.9-6.1-.2,0-1.3.3-2.5.7M114.7,73.9c-1.2.4-2,1.2-2,1.9,0,1.5,1.3,2.2,3.1,1.5.7-.3,2.2-.8,3.3-1.2,1.1-.4,1.8-.7,1.6-.7-.2,0-.9-.3-1.5-.8-1.5-1-3-1.2-4.5-.6M33.3,73.9c-.6.2-1.2,1-1.2,1.5,0,1.4,2.4,1.7,6.8.9,2.7-.5,3.1-.7,1.8-.9-.5,0-2.1-.5-3.5-.9-2.7-.8-3.1-.8-3.9-.5M123.4,74.2c-1.8.8-1.1,2.6,1.1,3.1.6.2,2,.5,3.1.7,1.1.3,2,.4,2.1.4.3-.3-1.4-2.3-2.7-3.3-1.7-1.3-2.4-1.5-3.6-.9M10.6,75.7c-.2.6.3,2.8,1,4.2,1.1,2.1,3.1,2,3.3-.2.1-1.4-.4-2.3-2.1-3.5-1.4-1-1.9-1.1-2.2-.5M141.7,77.1c1.4,3,1.9,5.6,1.9,8.7,0,4.5-1.4,7.3-5,10.4-1,.8-1.8,1.6-1.7,1.6,0,0,1-.3,2.1-.7,5.1-2.1,7.9-7.5,6.6-13.3-.5-2.2-2.3-5.8-3.7-7.4l-1.2-1.3.9,2M80.3,76.2c-.7.7-1.1,1.6-1.7,3.7l-.4,1.4,1.9-2c1.3-1.4,1.9-2.2,1.9-2.8,0-1-.8-1.2-1.7-.3M30.6,76.5c-.4.3-1.2.7-1.9.9-1.3.3-2,1-1.7,1.5.6,1,3.1-.3,4-2.2.5-1,.5-1.1-.4-.3M110.4,77.2c-1,1-1.8,3.2-1.6,4,0,.2.4-.2.8-.9s1.1-1.8,1.6-2.4c1.6-1.9,1-2.4-.7-.7M1.9,76.5c0,.6,1.4,4.4,2.5,6.4,2.4,4.6,6,8.2,10.5,10.4,3.4,1.7,6.4,2.2,10.8,2,3.7-.2,5.9-.8,8.3-2.3,1.3-.8,1.5-1.5.5-1.2-4.9,1.4-5.3,1.5-9.5,1.5-3.6,0-4.7,0-6.7-.7-7-2-11.5-6.1-15-13.6-.7-1.5-1.3-2.7-1.3-2.6M43.1,78.5c-.6.7,0,2,1,2.4,1.6.6,2.5-1.4,1.1-2.4-.9-.6-1.6-.6-2.1,0M114.7,78.9c-1.5.7-3.4,2.8-3.8,4.3-.2.6-.3,1.6-.3,2.3v1.2l.7-1.5c1.4-3,4.4-4.8,8.7-5,2.7-.1,2.9-.4.9-1.3-1.7-.8-4.5-.8-6.2,0M33,78.9c-2.9.3-4.4.8-5.2,1.6-.6.6-.6.8-.4,1.4.7,1.4,2.1,1.2,6.2-1,1.4-.7,3-1.4,3.7-1.6,1.1-.2,1.2-.2.5-.4-1-.3-2.3-.3-4.9,0M47.7,79.3c0,.7,1.9,2.7,3.2,3.3.9.4,2,.7,3.6.8,2.5.1,2.6.2-1.4-1.6-1.2-.5-2.7-1.4-3.4-1.9-1.4-1.1-1.9-1.2-1.9-.6M130.1,79.4c0,.5,1.4,1,1.7.7.3-.3-.6-1.1-1.2-1.1s-.6.2-.6.4M146.7,80.9c2.8,5.7,2.1,10.8-1.9,14.5-2,1.8-1.7,1.9.7.3,3-2,4.6-5.1,4.3-8.2-.2-1.7-2-5.7-3.3-7.4-.5-.6-.5-.5.1.8M105.7,80.9c.2.4.3,1.7.3,2.8,0,1.6.1,2.1.6,2.6s.8.6,1.2.3c1.4-.7,1.1-2.7-.6-4.9-1.3-1.7-2-2-1.5-.7M123.5,80.3c-.9.2-1.2.6-.8,1.1.2.3,1.3.5,3.4.6,2.6.1,3.3.3,4.9,1.1,1,.5,1.8.8,1.8.7,0-.5-2.9-2.4-4.3-2.8-1.6-.5-4.1-.8-5-.6M134.7,81.1c-.7.7-.6,1.6.5,4.1.4.9.9,2.3,1.1,3.1l.4,1.4.4-1.4c1-3.5.8-7-.5-7.7-.8-.4-1.1-.4-1.9.3M17.6,81.6c.3.4,1.2,1.1,2.1,1.5,1.4.7,1.9.8,3.2.6,1.6-.2,3.3-1,3.6-1.7.1-.3,0-.4-.9-.2-3.1.6-4.7.6-6.6-.2l-1.9-.8.5.7M154.8,81.8c0,.2.4,1.6.9,3.2.9,3.1,2.3,5.5,3.3,6.1.5.2,0-.8-1.7-4.5-2.4-4.9-2.5-5.3-2.5-4.8M14.1,82.2c0,.5,2.1,2.1,3.3,2.5,1.9.5,2.2.3.6-.4-.8-.4-1.9-1.1-2.5-1.5-1.1-.9-1.4-1-1.4-.5M116.5,83.3c-1.5.7-3.3,2-2.8,2,.1,0,1.2-.4,2.5-.9,1.3-.5,2.5-.9,2.8-.9.3,0,1-.2,1.5-.4.6-.3.4-.4-.8-.4-1.2,0-2.1.2-3.2.7M101.9,84.9c-.5,1.1-1.6,2.6-3,4-1.2,1.2-2.1,2.4-2,2.5.4.4,4.1-1.8,4.9-2.8.6-.8.8-1.5.9-3.2,0-1.2,0-2.2,0-2.2s-.5.8-1,1.7M0,86.2c.4,4.2,2.4,8.3,6,11.6,3.9,3.7,8.3,5.5,13.5,5.5s11.8-3,14.2-7.4l.9-1.6-1,1.1c-5.4,5.6-12.3,7.3-19.6,4.9-4.3-1.4-8.7-4.9-11-8.8-1.1-1.9-2.7-5.8-2.7-6.8s-.1-.6-.2-.7-.2.9,0,2.2M2.9,85.3c.1.4.8,1.9,1.5,3.4,1.6,3.3,4.2,6.1,5.6,6.1s1-.2,1.1-.6c.3-1.1-.1-1.8-1.9-3.1-2.2-1.6-3.8-3.1-5.3-5-.9-1.1-1.2-1.3-1-.8M104.7,88.8c-1.1,1-2.2,2-3.3,2.9-1.4,1.2-1.6,1.4-1.6,2.5s.2,1.3.6,1.5c1.9,1,4.2-1.6,5.6-6.6.3-1,.5-1.8.4-1.8s-.9.6-1.8,1.5M12.6,88.2c0,.3,3.6,1.9,5.5,2.5,3,.9,5.3,1.1,8.3.6l2.6-.4-3.8-.2c-3.6-.2-9.9-1.5-11.6-2.4-.6-.3-.9-.4-.9-.2M37.4,89.6c-1.8.8-2.4,2-1.5,2.9s2,.6,4-.2c1-.4,2.5-.9,3.4-1.1l1.7-.4-1.7-.8c-2.2-1-4.4-1.2-6-.4M124.3,90c1.8.9,3.4,2.8,4.6,5.3.8,1.6.9,2.2.8,3.6-.1,1.7-.1,1.7.5,1.2.3-.3.9-1.1,1.2-1.8,1.9-4-1.5-8.4-6.8-8.9l-1.6-.2,1.4.8M154.1,90.8c-.3.6-1,1.7-1.6,2.5-1.3,1.8-1.7,3-1.3,4.2.7,1.9,3,1.4,4.1-.9,1-1.9.8-4.7-.3-6.3-.4-.6-.4-.5-1,.5M122,91.9c-.9.9-1,2.5-.2,3.6.5.6.9.7,2,.7,1.8,0,2.6-.8,2.6-2.6s-2.8-3.4-4.4-1.7M93.6,92c-2.1,1.3-5.2,5.8-4.4,6.6.3.3.9,0,2.7-.9,2.7-1.4,5-3.4,5-4.4,0-1.8-1.4-2.4-3.2-1.3M117.9,93.1c-.5.4-1.3,1.4-1.9,2.3-.6.8-1.5,1.9-2.2,2.3-1.9,1.1-.5.9,1.7-.3,3.7-1.9,5.1-3.5,4.2-4.6-.5-.6-.7-.6-1.8.3M10.9,95.1c-.3.5.6,1.3,2.6,2.4,2.7,1.4,4.7,1.9,7.8,1.9h2.8s-2-.3-2-.3c-2.7-.4-6.2-1.6-8.7-3-2.4-1.4-2.2-1.3-2.5-.9M97.8,96.6c-3.3,1.2-5.8,2.8-7.8,4.9-1.1,1.1-2.2,2.7-2.7,3.4l-.7,1.3,1.6-1.8c2-2.2,5.8-5,9.1-6.8,3.3-1.8,3.4-2.1.5-1M146.3,97.6c-1.6.8-2.3,1.9-2,3.1.3,1,1.5,1.4,2.6.8,1.2-.7,2.2-2.4,2.1-3.5-.1-1.2-.9-1.3-2.7-.4M140,98c-.8.8-.9,1.3-.5,2,.3.4.4.4,1.1,0,1.1-.6,1.6-1.4,1.2-2-.5-.8-1-.8-1.8,0M1.9,99c1.4,1.7,2.9,2.8,3.8,2.8s.6-.8-.6-1.4c-.6-.3-1.7-1-2.4-1.5-2.1-1.6-2.2-1.6-.8.2M48,98.6c-1.8.5-4,1.8-5,3-1,1.2-.6,1.4,1.3.4,5-2.5,11.1-2.3,16.3.6l1.4.8-1.3-1.2c-3.5-3.2-8.6-4.7-12.6-3.6M119.5,99.2c-1,.7-.9,1.8.2,2.4.9.5,9.3.9,9.1.5-.3-.5-4-2.4-5.6-2.8-2.1-.6-2.8-.6-3.6,0M88.6,99.3c-.4.1-2.1,3.2-1.8,3.2s1.4-1.8,2.1-3q.3-.4-.3-.2M113.8,99.3c-.2.3,3.8.7,4.1.4,0,0,0-.3-.3-.4-.6-.4-3.6-.4-3.8,0M150.9,99.6c0,.2-.9,1.2-1.9,2.3-1,1.1-1.8,2-1.8,2.2s.5.2,1,.2c2,0,3.2-1.8,2.9-4.2,0-.5-.1-.7-.2-.5M136.2,100.8c-.7.7-1.5,1.4-2.3,2-1.2.9-1.2.9-.3.7,2.5-.6,4.7-2.3,4.3-3.4-.3-.7-.6-.6-1.7.7M31.3,101.7c-.5.2-2.4,1.1-4.1,1.9-2.7,1.2-3.3,1.7-3.6,2.4-.5,1.2-.2,2.1.9,2.5,1.9.8,4.5-1.2,7.1-5.5,1.2-2,1.2-2.1-.2-1.4M46.5,102.3c-1.9.7-3.8,2.7-4.6,4.8-.8,2.1-.7,2.9.2,1.2.9-1.8,2.9-3.9,5-5.3,1.9-1.3,1.7-1.5-.6-.7M8,102.9c.5,1.3,2.5,3.9,3.4,4.2,1,.4,2.4,0,2.4-.6,0-1-.7-1.7-3.1-2.9-.9-.5-1.8-.9-2.7-1.4-.1,0,0,.3,0,.8M139.2,102.7c-2.4.4-3.6,1.6-3.1,3.2.4,1.4,2.6,1.8,4.6.8,1.3-.7,3.4-2.8,3.4-3.5s-2.3-.9-4.9-.5M50.6,103.5c-1.2.5-1.8,1.2-1.5,2,.3.8,1.5.8,4.5-.2,1.3-.4,3.1-.8,3.9-.8,1.8,0,1.6-.3-.6-1-2-.6-5-.6-6.3,0M39,104.9c-.9.8-2,2-2.3,2.6-.6,1-.8,2.3-.4,2.3s2-1.4,2.7-2.8c.4-.9,1.1-2,1.5-2.6,1.1-1.4.5-1.2-1.5.5M15,104.7c0,.4,3.8,2.6,4.7,2.8,1.1.2,2.9,0,2.9-.4s-1.2-.5-2.7-.9-3.2-.9-3.7-1.1c-1-.5-1.2-.6-1.2-.4M131.3,105.4c.7.4,2.7.7,3.4.5,1.3-.4.5-.8-1.6-.8-1.4,0-2,.1-1.8.3M6.5,105.8c0,1.2.9,4.7,1.8,6.4,2.2,4.3,5.8,6.8,10.1,7,3.4.2,5.1-.5,7.4-2.8,1-1,1.7-1.9,1.6-2-.1-.1-.6.2-1,.6-1.1,1.1-3.8,2.3-5.8,2.5-6,.8-11.3-3.3-13.6-10.5-.3-.9-.5-1.5-.6-1.2M128.6,106.7c5,4.3,12.8,4.9,17.1,1.3.7-.6.5-.6-1.2.2-1.7.7-2.4.8-5.2.8s-3.6-.1-6.3-1-3.6-1.3-4.3-1.6l-1.2-.6,1.1.9M45.8,106.6c-1.5.5-2.3,2.2-1.5,3.1,1.2,1.2,4.5-1.1,3.8-2.8-.2-.5-1.4-.6-2.3-.2M14.8,107.7c.3.2,1.2,1,2,1.8,1.5,1.6,3.4,2.4,5.7,2.4s4.2-.5,4.8-1c.4-.3,0-.4-1.9-.4-1.9,0-2.8-.2-4.7-1-1.3-.5-2.9-1-3.5-1.2s-1.6-.4-2.1-.6c-.6-.3-.7-.3-.3,0M12,110c2.9,4.2,6,5.8,10.2,5.1,1.8-.3,1.8-.7-.1-.9-1.8-.2-6.2-2.4-8.8-4.3-1-.8-1.9-1.4-2-1.4s.3.7.8,1.4M107.8,109.7c1.2,1,3.7,2.2,4.6,2.2,1.6,0,2-1.6.5-2.1-.4-.1-1.9-.4-3.3-.5l-2.6-.2.8.6M38,110c-.3.1-1,.7-1.5,1.3-1.1,1.3-1,3.1.4,4.3,1.4,1.2,3.1,1.2,4.5-.2.7-.7,1-1.3,1-1.9,0-1-.8-2.8-1.5-3.2-.8-.4-2.3-.6-3-.3M154.3,111.6c-2.1,1.2-3.2,2.7-4.2,5.5-.4,1.3-1,2.5-1.1,2.7-.2.3-.2.4,0,.4.5,0,2.4-2.4,3.9-4.9.7-1.3,1.8-2.8,2.4-3.4,1.3-1.3,1.1-1.4-.9-.2M58.7,111.2c-8.1,1.4-13.7,8.8-13.8,18.3,0,4.2.8,6.2,3.2,8.2,1,.8,1.5.9,3.3,1.1,1.8.1,2.3,0,3.8-.7,2.7-1.3,4.3-3.5,5.8-7.9,1.2-3.5,2.5-5.6,4.4-7.4,2-1.9,4.4-2.9,6.7-2.9h1.5l-.3-.9c-.7-2.5-3.5-5.6-5.7-6.6-2.7-1.2-6.1-1.6-8.9-1.1M114.4,111.5c.3.3,3.5,1.3,3.5,1.1s-.6-.4-1.3-.7c-1.3-.6-2.7-.8-2.2-.3M121.6,113.6c2.5,3.5,4.8,4.5,4.8,1.9s-.9-2-3.2-3c-3.5-1.6-3.5-1.6-1.6,1.1M43.6,115c-2.5,4.3-6.7,5.5-9.6,2.7-.5-.5-1-.8-1-.6,0,.8,1.3,2.4,2.3,2.9,3,1.4,6.4-.4,8.5-4.7.7-1.3.5-1.6-.3-.3M56.5,115.1c-2.4.7-4.5,1.9-6.1,3.6-1.5,1.7-2.9,4.2-3.2,5.9-.2,1-.1.9.8-.6,2-3.4,6-6.4,9.9-7.5,2.3-.6,6.5-.6,8.7,0,.9.2,1.7.4,1.8.3s-.7-.4-1.7-.9c-3.2-1.4-7-1.8-10.1-1M117,114.7c0,.4,1.7,2.7,2.6,3.6,1.5,1.4,3.9,1.9,5.8,1.1l.9-.4h-1.1c-2.7-.4-4.9-1.5-7.1-3.5-.6-.6-1.1-1-1.1-.8M126.9,117.1c-.1.2.1.7.5,1.1.5.5,1,.7,1.9.7s3.5-.8,3.2-1.1-4.4-1.1-5-1.1-.5.2-.6.3M97.4,117.9c-1.1.4-2.1.9-2.2,1s.6.3,1.7.4,2.9.4,4,.7c2.3.6,3.2.4,3.8-.8.3-.5.2-.8-.4-1.4-.7-.7-1-.8-2.8-.8-1.4,0-2.7.2-4.1.8M109.2,119.4c.5,1,.9,2.6,1.1,4.4.3,3,.6,3.7,1.5,4.3.3.2.8,1.1,1.1,2.1.6,2.1,1.2,3.1.9,1.5-.2-.7-.4-1.4-.6-2.1-.3-.8-.3-1.2,0-1.7.9-1.7-.7-5.9-3.2-8.6l-1.4-1.5.7,1.6M136.8,118.5c-3.1,0-3.8.4-3.4,1.4.1.3.5.5,1,.5.9,0,4.8-1.4,5.3-1.8.2-.2.2-.2.1-.2,0,0-1.5.1-3.1.2M59.2,119.2c-1.7.3-4,1.6-4.5,2.4-.7,1.2-.2,1.2,1.7-.1,1.1-.8,2.7-1.7,3.6-2,1.7-.6,1.6-.7-.8-.3M138.3,120.7c-3.2,1.6-3.9,2-3.9,2.7s1.4.5,2.7-.4c1.2-.8,4.6-3.8,4.4-3.7,0,0-1.5.7-3.1,1.5M61.7,120.8c-3.3.5-6.4,2.8-6.4,4.6s1.1,1.8,1.8,1.6c.3-.1,1.8-1.4,3.3-3,1.5-1.5,3-2.9,3.4-3.1.7-.4.4-.4-2,0M95.3,121.2c.8.3,2.2,1,3.1,1.7,1.8,1.2,2.8,1.5,3.1.8.5-1.3-3.4-3-6.6-2.9-.9,0-.9,0,.4.5M120.9,121.1c0,.5,2.6,1.8,3.7,1.8,5.6,0,7.1,0,7.9-.4,1.1-.6,1.1-.9.2-1.2-1.8-.5-5.2,0-5.9.9-.3.4-.6.4-2.1,0-.9-.2-2.2-.7-2.8-.9s-1.1-.3-1.1-.2M104.6,121.8c-.2,1,.5,2.2,1.6,2.6,1.1.4,1.8-.2,1.5-1.5-.4-1.8-2.7-2.6-3.1-1.1M32.2,121.8c-1.5.4-2.6,1.3-1.3,1,1-.2,3-1.1,3-1.3s-.2-.2-1.7.3M25.8,123.1c-.8.5-2.2,1.3-3,1.8l-1.5.9h1.2c.6.2,2.3,0,3.6,0,2.5-.3,3.9-1.1,3.9-2.2s-1.9-1.6-4.1-.3M34.4,124.3c-2,2.2-4,3.3-6.7,3.8l-1.9.3,1.3.2c2.4.4,5.1-.4,6.9-2,.8-.7,2.6-4,2.3-4.3,0,0-.9.8-1.9,1.9M51.3,123.4c-1,1-1.2,2-.5,2.9,1,1.3,3.4-.9,3.2-2.8-.1-1.2-1.5-1.3-2.7,0M38.6,124.9c-3.5,5.4-9.2,7.2-16.4,5.4-3.1-.8-5.8-2.3-9-5l-1.7-1.4,1.1,1.3c1.4,1.8,4.8,4.4,7.1,5.5,3.1,1.5,5.4,1.9,9,1.8,2.9-.1,3.3-.2,5.5-1.3,2.8-1.4,4.2-3.1,5.2-6.2.4-1.1.6-2,.5-2.1,0,0-.7.8-1.4,1.9M146.9,123.7c-.6.4-2.2,1.4-3.6,2.2-2.9,1.5-4.1,2.7-3.6,3.6.9,1.5,2.4,1.2,4.4-.8,1.4-1.4,3.3-4.1,3.7-5.3.2-.7.3-.7-1,.3M101.6,124.7c-.9.5-.7,2,.4,3,.5.4,1.8,1.5,2.8,2.4,1.8,1.6,3.9,2.6,5.6,2.5h.9l-1.1-.4c-2.4-.8-3.6-2.1-5.2-5.4-1-2.1-2.1-2.8-3.4-2.1M108,126.3c-.4.2-.5.5-.3,1,.2.8.7,1.1,1.6,1.1.8,0,.9-.8.2-1.8-.5-.8-.7-.8-1.4-.3M118.8,127.3c0,1.4,4,5.9,6.4,7.1,3.1,1.6,8.1,2,11.8,1.1,2.9-.7,6.5-2.6,8.2-4.3.8-.8,1.2-1.2.9-1-3.8,2.9-10.7,4.6-15.6,3.9-4.6-.6-8.6-2.9-11.1-6.3-.4-.5-.7-.8-.7-.6M67.3,128.8c-3.2,1.9-4.5,3.8-3.9,5.6.2.6.5.8,1.2.9,1.2.1,1.8-.7,2.8-3.4.4-1,1-2.4,1.4-3,.4-.6.6-1.1.5-1.1s-1.1.5-2.1,1.1M52.1,128.9c-1.3.8-2.6,3.4-2.6,5.3s.5,2.1,1.8,1.4c1.7-1,3.8-5.3,3.2-6.8-.2-.6-1.3-.6-2.4.1M47.2,129.1c-.2.6,0,1.4.6,1.4s.6-.2.8-.5c.3-.4.3-.6,0-.9-.2-.2-.6-.5-.8-.5s-.5.2-.6.5M57,129.8c-.8,1.9-2.3,6.1-2.1,5.9.6-.6,3.3-5.4,3.3-6,0-1.2-.7-1.1-1.2.2M114.8,129.1c0,1.1,1.1,4.6,2,6.1,2.8,4.8,8.8,7.4,14.3,6.1,2.2-.5,6.4-2.3,6.8-2.9.1-.2-.6,0-1.6.4-6.3,2.5-12.3,1.6-16.7-2.4-1.9-1.8-2.7-2.9-3.8-5.9-.5-1.2-.9-1.9-.9-1.6M124.5,129.6c2.6,1.2,6.4,1.9,9.4,1.8,2.5-.1,5.4-.9,5.4-1.4s-1.5-.1-3.4,0c-3,0-9.5-.3-11.8-.7-.5,0-.3,0,.5.4M94.9,130.7c.3.5.8,1.6,1.1,2.4.4.9.7,1.4.8,1.2.5-.5,0-1.7-1.3-3.1-.9-.9-1.1-1.1-.7-.4M118.6,130.5c.3,1.2,1.7,3.3,2.8,4.6,1.3,1.5,4.2,2.9,6.6,3.3,1.9.3,2.7.2,1.2-.1-2.8-.7-7.1-3.8-9.7-7-.9-1.1-1.2-1.3-1-.8M38.8,132.7c-.8.9-2.2,1.9-3.5,2.5-2.2,1.1-2.9,1.6-4,2.9l-.6.7,1.2-.2c2.6-.5,6.2-3.1,7.7-5.5,1.1-1.9.8-2.1-.8-.4M70,132.2c0,1.3-2,4.6-3.8,6.3-2,2-4.6,3.3-7.6,3.9-1.8.3-4.9.2-6.3-.2-.3,0,0,.1.6.5.6.4,2,.8,3,.9,4.7.7,9.4-1.2,12-4.8,1.2-1.7,2.4-5.1,2.2-6.4,0-.6-.2-.6-.2-.2M19.5,133.3c1.6,1.5,3.9,2.6,6.2,3.1,2.2.4,4.9-.1,7.1-1.5,1.8-1.1,1.7-1.1-.7-.3-3.6,1.3-7,.8-12.5-1.8l-1.5-.7,1.3,1.2M96.9,134.9c-.5.6-.8,2.8-.5,4,.3,1.6,1.5,2.9,2.7,2.9,1.1,0,1.5-.2,2-1.1.8-1.6-.1-4.2-2.1-5.5-1.2-.8-1.7-.9-2.1-.3M39.5,137c-1.7,2.4-4.1,3.6-7.5,3.6s-2.5-.1-4.2-1c-2.1-1-2.3-.9-.6.5,1.5,1.3,3.1,1.8,5.4,1.8,3.6,0,6.3-1.8,7.8-5.2.5-1.3.3-1.1-.8.4M62.4,137.2c-.7.7-2.2,1.6-3.2,2.1-1.4.7-1.7.9-1.1.9,1.7,0,6.1-2.9,6.1-4s-.4-.3-1.8.9M41,138.3c-1.5,2.9-4.6,5.1-7.7,5.5-3.3.5-7.5-1.6-9.8-4.7-1.4-1.9-1.5-1.9-.4.3,4.1,8.1,15.5,7.9,18.3-.4.7-2,.4-2.4-.4-.7M93.9,138.6c.3,2.6,1,4.4,2.5,5.9,1.2,1.2,1.5,1.3,2.7,1.3s1.5-.2,1.7-.5c.3-.4.2-.5-.5-.5-1.3,0-3.3-1-4.2-2.2-.8-1.1-1.2-2-1.9-4.2l-.4-1.4.2,1.5M111.3,138.9c-.3.9.2,4.5.9,6.1,1.6,3.4,4.3,5.4,7.8,5.6,2.4.2,4.3-.4,5.6-1.5l1-.9-1.1.5c-1.6.8-5.5.8-7.5-.1-3.1-1.4-5.1-4.1-5.7-8-.3-2.1-.7-2.7-1.1-1.7M115.8,138.9c0,.7,1.8,3.1,3,4.1,3.9,3.1,9.8,3.9,14,1.9.7-.3.9-.5.6-.4s-1.9.2-3.5.4c-4.9.3-8.8-1.1-12.1-4.3-1.1-1-1.9-1.7-1.9-1.5M114.2,140c0,2.6,2,5.7,4.6,7.1,1.7.9,2.1.7.5-.3-2-1.3-3.4-3.3-4.6-6.6l-.6-1.5v1.4M107.9,139.6c-1.3.8-2.2,2.1-2.4,3.6-.3,1.4-.2,1.4,1.4-.9.6-.8,1.1-1.7,1.7-2.5.6-.8.5-.9-.7-.1M43.4,141.9c2.8,4.1,6.4,5.8,10.1,4.8l1.4-.4-1.4-.4c-2.7-.8-7.5-2.9-9.3-4.3-1.7-1.2-1.8-1.2-.8.3M102.9,142.9c-.7.2-1.3,1.6-.8,2.1.5.6,1.4.5,2-.3.7-1.1.1-2.1-1.1-1.8M108.5,144c-.9,2.5-3.9,4-6.8,3.4-.8-.2-1.5-.2-1.5-.1,0,.4,2.6,1.9,3.6,2,2,.4,3.7,0,4.8-1.1,1.2-1.2,1.6-2.5,1.1-4.1-.4-1.4-.7-1.4-1.2,0M40.9,146.2c1.2,1.8,4,3.6,6.2,4.2,2.6.6,6,.3,8.3-.9,1.1-.5,2.3-1.3,2.7-1.7l.7-.8-1.9.8c-1.8.8-2.3.8-6.1.8s-4.2,0-6.2-1c-1.2-.5-2.7-1.4-3.3-2l-1.3-1,1,1.5M36.2,147.8c.9,1.4,1.8,2.3,2.8,2.7,1.2.5,1.2.5,1.7,0s0-1.5-2.1-2.3c-1.1-.4-2.1-.8-2.2-.9-.1-.2-.3-.3-.5-.3-.2,0,0,.4.2.8M41.3,150.6c0,.3,2.1,1.1,3.5,1.4.6.1.3-.1-.9-.7-2-.9-2.6-1.1-2.6-.6"></path>
</svg></svg></g></g></svg>